HIERARCHY
ROOT Hips
{
    OFFSET 0.000000 0.000000 0.000000
    CHANNELS 6 Xposition Yposition Zposition Zrotation Xrotation Yrotation
    JOINT Spine
    {
        OFFSET -0.000000 7.750029 0.000000
        CHANNELS 3 Zrotation Xrotation Yrotation
        JOINT Spine1
        {
            OFFSET -0.000000 19.767460 0.000000
            CHANNELS 3 Zrotation Xrotation Yrotation
            JOINT Neck
            {
                OFFSET -0.000000 19.686279 1.789662
                CHANNELS 3 Zrotation Xrotation Yrotation
                JOINT Head
                {
                    OFFSET -0.000000 13.231757 -1.890251
                    CHANNELS 3 Zrotation Xrotation Yrotation
                    End Site
                    {
                        OFFSET -0.000000 23.628138 0.000000
                    }
                }
            }
            JOINT LeftShoulder
            {
                OFFSET 3.736819 16.910755 -0.280982
                CHANNELS 3 Zrotation Xrotation Yrotation
                JOINT LeftArm
                {
                    OFFSET 13.626117 0.000000 0.000000
                    CHANNELS 3 Zrotation Xrotation Yrotation
                    JOINT LeftForeArm
                    {
                        OFFSET 31.364786 0.000000 0.000000
                        CHANNELS 3 Zrotation Xrotation Yrotation
                        JOINT LeftHand
                        {
                            OFFSET 23.389509 0.000000 0.000000
                            CHANNELS 3 Zrotation Xrotation Yrotation
                            End Site
                            {
                                OFFSET 14.176883 0.000000 0.000000
                            }
                        }
                    }
                }
            }
            JOINT RightShoulder
            {
                OFFSET -3.821718 16.910755 -0.280982
                CHANNELS 3 Zrotation Xrotation Yrotation
                JOINT RightArm
                {
                    OFFSET -13.626117 0.000000 0.000000
                    CHANNELS 3 Zrotation Xrotation Yrotation
                    JOINT RightForeArm
                    {
                        OFFSET -31.364786 0.000000 0.000000
                        CHANNELS 3 Zrotation Xrotation Yrotation
                        JOINT RightHand
                        {
                            OFFSET -23.389509 0.000000 0.000000
                            CHANNELS 3 Zrotation Xrotation Yrotation
                            End Site
                            {
                                OFFSET -14.176883 0.000000 0.000000
                            }
                        }
                    }
                }
            }
        }
    }
    JOINT LeftUpLeg
    {
        OFFSET 9.451255 0.000000 0.000000
        CHANNELS 3 Zrotation Xrotation Yrotation
        JOINT LeftLeg
        {
            OFFSET -0.000000 -41.898624 0.000000
            CHANNELS 3 Zrotation Xrotation Yrotation
            JOINT LeftFoot
            {
                OFFSET -0.000000 -38.481331 0.000000
                CHANNELS 3 Zrotation Xrotation Yrotation
                JOINT LeftToeBase
                {
                    OFFSET -0.000000 -6.143315 14.176883
                    CHANNELS 3 Zrotation Xrotation Yrotation
                    End Site
                    {
                        OFFSET -0.000000 0.000000 3.780502
                    }
                }
            }
        }
    }
    JOINT RightUpLeg
    {
        OFFSET -9.451255 0.000000 0.000000
        CHANNELS 3 Zrotation Xrotation Yrotation
        JOINT RightLeg
        {
            OFFSET -0.000000 -41.898624 0.000000
            CHANNELS 3 Zrotation Xrotation Yrotation
            JOINT RightFoot
            {
                OFFSET -0.000000 -38.481331 0.000000
                CHANNELS 3 Zrotation Xrotation Yrotation
                JOINT RightToeBase
                {
                    OFFSET -0.000000 -6.143315 14.176883
                    CHANNELS 3 Zrotation Xrotation Yrotation
                    End Site
                    {
                        OFFSET -0.000000 0.000000 3.780502
                    }
                }
            }
        }
    }
}
MOTION
Frames:    5
Frame Time:    0.010000
-5.825027    90.675011    147.163742    -0.138145    -0.612339    147.826904    -1.146477    -3.776254    -1.495081    0.904689    9.378003    -1.531509    -29.807854    57.441551    35.197655    21.519709    -30.592724    31.204262    18.293503    -9.639609    -9.636762    -49.198135    43.409363    -48.612175    -5.532610    -40.639027    -111.587746    56.245480    -29.792755    38.232376    -19.425510    -7.982017    9.922359    23.945990    26.552647    47.919476    17.037865    -20.838339    123.555710    -27.224678    -39.411694    -43.906036    9.992184    -9.315417    8.032329    -4.526740    19.394241    2.377915    -4.872115    -7.156739    18.417583    0.000000    0.000000    0.000000    -5.758161    -2.745863    3.679100    1.369917    18.341686    9.823904    2.029918    -13.020451    -17.751709    0.000000    0.000000    0.000000    
-5.832597    90.676262    147.150650    -0.142402    -0.605229    147.833054    -1.161982    -3.764243    -1.483501    0.936949    9.380383    -1.522177    -29.839626    57.423267    35.194393    21.564695    -30.612017    31.214899    18.328457    -9.618282    -9.627022    -49.115528    43.436024    -48.712425    -5.541720    -40.678612    -111.565971    56.296001    -29.844181    38.199783    -19.460985    -7.985819    9.895974    23.962727    26.548916    47.905354    17.061682    -20.810993    123.587059    -27.396042    -39.368744    -43.990555    9.987906    -9.304843    8.042031    -4.541562    19.399805    2.289035    -4.825575    -7.160760    18.444967    0.000000    0.000000    0.000000    -5.774523    -2.730862    3.676744    1.375897    18.341063    9.820321    2.020108    -13.056735    -17.753319    0.000000    0.000000    0.000000    
-5.840738    90.679459    147.142761    -0.153815    -0.605574    147.846619    -1.172295    -3.771073    -1.478719    0.954100    9.392391    -1.518525    -29.816868    57.443104    35.173454    21.536434    -30.658829    31.193653    18.355068    -9.661257    -9.646589    -49.179695    43.412624    -48.655304    -5.544882    -40.635372    -111.544930    56.240753    -29.831041    38.175564    -19.480387    -7.974325    9.897182    23.988878    26.526392    47.879208    17.035826    -20.828873    123.602539    -27.495832    -39.308640    -44.032017    9.969188    -9.298546    7.946612    -4.574671    19.363762    2.419605    -4.790283    -7.141740    18.395535    0.000000    0.000000    0.000000    -5.783818    -2.715441    3.734706    1.384330    18.309351    9.719823    2.060346    -13.059859    -17.738905    0.000000    0.000000    0.000000    
-5.846939    90.684143    147.135880    -0.173948    -0.630024    147.868713    -1.173090    -3.793105    -1.472673    0.957570    9.389511    -1.512492    -29.832178    57.462509    35.189022    21.537420    -30.711494    31.204546    18.407228    -9.633411    -9.643806    -49.155365    43.383835    -48.709099    -5.515405    -40.603676    -111.497231    56.140396    -29.813305    38.133327    -19.487228    -7.977957    9.864439    23.991922    26.567839    47.872356    16.986977    -20.892332    123.617447    -27.515879    -39.277275    -44.064800    9.953120    -9.349793    8.036255    -4.534795    19.400036    2.396450    -4.870780    -7.166094    18.361782    0.000000    0.000000    0.000000    -5.796882    -2.740941    3.733745    1.393716    18.302317    9.732137    1.986021    -13.008951    -17.776085    0.000000    0.000000    0.000000    
-5.850682    90.683952    147.124359    -0.173756    -0.630386    147.875198    -1.160374    -3.806183    -1.472212    0.954977    9.419651    -1.512357    -29.819910    57.496078    35.216698    21.479408    -30.805422    31.218998    18.433578    -9.636793    -9.626826    -49.100960    43.388298    -48.744335    -5.539954    -40.607723    -111.491486    56.212856    -29.837364    38.100365    -19.527939    -7.976058    9.856870    24.039976    26.529387    47.869335    16.997238    -20.864138    123.620941    -27.507835    -39.279415    -44.044197    9.963699    -9.334677    8.023892    -4.582994    19.376438    2.468018    -4.782862    -7.126756    18.302851    0.000000    0.000000    0.000000    -5.806052    -2.713834    3.835633    1.431872    18.261332    9.630322    1.969934    -12.987788    -17.778158    0.000000    0.000000    0.000000    
